<svg xmlns="http://www.w3.org/2000/svg" viewBox="0 0 96 32" width="96" height="32">
  <!-- Three 32 × 32 icons side by side; each <view> frames one of them -->
  <view id="sun" viewBox="0 0 32 32"/>
  <view id="moon" viewBox="32 0 32 32"/>
  <view id="cloud" viewBox="64 0 32 32"/>
  <g fill="#f59e0b">
    <circle cx="16" cy="16" r="6"/>
    <path d="M16 3 V7 M16 25 V29 M3 16 H7 M25 16 H29 M6.8 6.8 L9.6 9.6 M22.4 22.4 L25.2 25.2 M6.8 25.2 L9.6 22.4 M22.4 9.6 L25.2 6.8"
          stroke="#f59e0b" stroke-width="2.5" stroke-linecap="round"/>
  </g>
  <path d="M54 6 A11 11 0 1 0 58 22 A9 9 0 1 1 54 6 Z" fill="#6366f1"/>
  <path d="M73 24 H90 A5 5 0 0 0 89 14 A7 7 0 0 0 76 13 A5.5 5.5 0 0 0 73 24 Z" fill="#38bdf8"/>
</svg>
